<svg xmlns="http://www.w3.org/2000/svg" xml:space="preserve" style="fill-rule:evenodd;clip-rule:evenodd;stroke-linecap:round;stroke-linejoin:round;stroke-miterlimit:1.5" viewBox="0 0 1920 1080"><path d="M4.704-1.378h1673.5V960.99H4.704z" style="fill:none" transform="matrix(1.1473 0 0 1.12223 -5.39 1.546)"/><path d="M205.78 78.949v101.448" style="fill:none;stroke:#f3f3f3;stroke-width:2.51px" transform="matrix(-.39789 0 0 .39789 1858.48 47.536)"/><path d="M205.78 78.949v101.448" style="fill:none;stroke:#f3f3f3;stroke-width:2.51px" transform="matrix(0 .39789 .39789 0 1725.002 17.255)"/><path d="M205.78 78.949v101.448" style="fill:none;stroke:#f3f3f3;stroke-width:2.51px" transform="matrix(-.39789 0 0 .39789 1122.425 351.025)"/><path d="M205.78 78.949v101.448" style="fill:none;stroke:#f3f3f3;stroke-width:2.51px" transform="matrix(0 .39789 .39789 0 988.952 320.743)"/><path d="M205.78 78.949v101.448" style="fill:none;stroke:#f3f3f3;stroke-width:2.51px" transform="matrix(-.39789 0 0 .39789 461.373 733)"/><path d="M205.78 78.949v101.448" style="fill:none;stroke:#f3f3f3;stroke-width:2.51px" transform="matrix(0 .39789 .39789 0 327.901 702.719)"/><path d="M205.78 78.949v101.448" style="fill:none;stroke:#f3f3f3;stroke-width:2.51px" transform="matrix(-.39789 0 0 .39789 419.52 291.722)"/><path d="M205.78 78.949v101.448" style="fill:none;stroke:#f3f3f3;stroke-width:2.51px" transform="matrix(0 .39789 .39789 0 286.048 261.44)"/><path d="M205.78 78.949v101.448" style="fill:none;stroke:#f3f3f3;stroke-width:2.51px" transform="matrix(-.39789 0 0 .39789 982.89 842.884)"/><path d="M205.78 78.949v101.448" style="fill:none;stroke:#f3f3f3;stroke-width:2.51px" transform="matrix(0 .39789 .39789 0 849.418 812.602)"/><path d="M205.78 78.949v101.448" style="fill:none;stroke:#f3f3f3;stroke-width:2.51px" transform="matrix(-.39789 0 0 .39789 1741.615 677.187)"/><path d="M205.78 78.949v101.448" style="fill:none;stroke:#f3f3f3;stroke-width:2.51px" transform="matrix(0 .39789 .39789 0 1608.138 646.904)"/><path d="M205.78 78.949v101.448" style="fill:none;stroke:#f3f3f3;stroke-width:2.51px" transform="matrix(-.39789 0 0 .39789 780.564 150.443)"/><path d="M205.78 78.949v101.448" style="fill:none;stroke:#f3f3f3;stroke-width:2.51px" transform="matrix(0 .39789 .39789 0 647.092 120.161)"/><path d="M376.348 431.563h14.826v14.826h-14.826z" style="fill:#f3f3f3" transform="matrix(-1 0 0 1 1951.835 0)"/><path d="M376.348 431.563h14.826v14.826h-14.826z" style="fill:#f3f3f3" transform="matrix(-1 0 0 1 2168.112 493.603)"/><path d="M376.348 431.563h14.826v14.826h-14.826z" style="fill:#f3f3f3" transform="matrix(-1 0 0 1 1009.973 99.418)"/><path d="M376.348 431.563h14.826v14.826h-14.826z" style="fill:#f3f3f3" transform="matrix(-1 0 0 1 1637.876 472.674)"/><path d="M376.348 431.563h14.826v14.826h-14.826z" style="fill:#f3f3f3" transform="matrix(-1 0 0 1 730.902 -310.464)"/><path d="M376.348 431.563h14.826v14.826h-14.826z" style="fill:#f3f3f3" transform="matrix(-1 0 0 1 551.251 531.976)"/><path d="M376.348 431.563h14.826v14.826h-14.826z" style="fill:#f3f3f3" transform="matrix(-1 0 0 1 1632.645 -268.604)"/></svg>